# xmcd
#
# Track frame offsets:
#	150
#	19779
#	72034
#	91106
#	113191
#	133426
#	159882
#	184854
#	202902
#	218819
#	236244
#
# Disc length: 3418 seconds
#
# Revision: 1
# Processed by: cddbd v1.5.2PL0 Copyright (c) Steve Scherf et al.
# Submitted via: EZCDAudioConverter 8.0.2.1
#
DISCID=940d580b
DTITLE=Various Artist - Nhạc Phim (Việt Nam, Hàn Quốc, Hồng Kông) Chọn Lọc
DYEAR=1999
DGENRE=
TTITLE0=Phương Thanh, Bằng Kiều - Nhịp tim yêu
TTITLE1=Thu Phương, Thế Hệ Mơi, Bằng Kiều - Khúc tự tình, Vocal, Bão lòng
TTITLE2=Lương Chí Cường - Oai phong Hồng gia
TTITLE3=Mỹ Lệ - Khát vọng tình yêu
TTITLE4=Phương Thanh - Nhịp tim yêu
TTITLE5=Tam ca 3A - Mong ước kỷ niệm xưa
TTITLE6=Hoàng Dũng - Một đời mơ mộng
TTITLE7=Khánh Du - Ngày mai trời lại sáng
TTITLE8=Quang Linh - Người đến từ Triều Châu
TTITLE9=Hồng Ngọc - Trái tim bé bỏng
TTITLE10=Bằng Kiều - Nhịp tim yêu
EXTD=
EXTT0=
EXTT1=
EXTT2=
EXTT3=
EXTT4=
EXTT5=
EXTT6=
EXTT7=
EXTT8=
EXTT9=
EXTT10=
PLAYORDER=
